<?xml version="1.0" encoding="UTF-8"?>
<svg xmlns="http://www.w3.org/2000/svg" width="792" height="612" viewBox="0 0 792 612">
<rect width="792" height="612" fill="#ffffff"/>
<path d="M 700 88.296 L 700.552 88.296 C 701.128 87.456 701.752 87.264 704.08 87.24 C 706.96 87.192 707.824 86.76 708.64 84.864 C 709.6 86.832 710.824 87.624 712.816 87.624 C 715.84 87.624 717.496 85.728 717.496 82.296 L 717.496 74.232 L 700 74.232 L 700 76.464 L 707.536 76.464 L 707.536 82.224 C 707.536 84.192 706.576 85.128 704.416 85.104 L 702.856 85.08 C 701.776 85.056 700.72 85.272 700 85.584 L 700 88.296 L 700 88.296 Z M 712.504 85.296 C 710.44 85.296 709.504 84.24 709.504 81.864 L 709.504 76.464 L 715.528 76.464 L 715.528 81.864 C 715.528 84.36 714.472 85.296 712.504 85.296 Z" fill="#000000"/>
<path d="M 706.192 101.568 C 710.536 101.568 712.936 99.48 712.936 95.856 C 712.936 92.328 710.512 90.192 706.288 90.192 C 702.064 90.192 699.64 92.304 699.64 95.88 C 699.64 99.408 702.064 101.568 706.192 101.568 Z M 706.216 99.48 C 703.264 99.48 701.488 98.088 701.488 95.88 C 701.488 93.648 703.24 92.28 706.288 92.28 C 709.312 92.28 711.088 93.648 711.088 95.88 C 711.088 98.136 709.336 99.48 706.216 99.48 Z" fill="#000000"/>
<path d="M 700 108.768 L 701.68 108.768 C 701.608 108.504 701.584 108.192 701.584 107.808 C 701.584 106.944 701.824 106.704 702.712 106.704 L 710.944 106.704 L 710.944 108.768 L 712.576 108.768 L 712.576 106.704 L 716.032 106.704 L 716.032 104.712 L 712.576 104.712 L 712.576 103.008 L 710.944 103.008 L 710.944 104.712 L 701.824 104.712 C 700.552 104.712 699.832 105.576 699.832 107.136 C 699.832 107.616 699.88 108.096 700 108.768 Z" fill="#000000"/>
<path d="M 700.048 122.184 L 701.56 122.184 C 701.512 121.968 701.512 121.872 701.512 121.752 C 701.512 121.056 701.872 120.672 702.496 120.672 L 709.504 120.672 C 711.736 120.672 712.936 119.04 712.936 115.944 C 712.936 112.896 711.76 111.024 708.856 110.904 L 708.856 112.92 C 710.392 113.088 711.088 114 711.088 115.872 C 711.088 117.672 710.416 118.68 709.216 118.68 L 708.688 118.68 C 707.848 118.68 707.488 118.176 707.296 116.592 C 706.936 113.76 706.84 113.328 706.528 112.56 C 705.928 111.096 704.8 110.352 703.264 110.352 C 700.984 110.352 699.64 111.936 699.64 114.48 C 699.64 116.088 700.312 117.648 701.488 118.752 C 700.528 118.968 699.832 119.832 699.832 120.816 C 699.832 121.224 699.88 121.536 700.048 122.184 Z M 704.344 118.68 C 702.544 118.68 701.392 116.856 701.392 114.912 C 701.392 113.352 701.944 112.44 703.312 112.44 C 704.632 112.44 705.208 113.328 705.52 115.464 C 705.808 117.576 705.904 118.008 706.216 118.68 L 704.344 118.68 Z" fill="#000000"/>
<path d="M 700 128.784 L 701.68 128.784 C 701.608 128.52 701.584 128.208 701.584 127.824 C 701.584 126.96 701.824 126.72 702.712 126.72 L 710.944 126.72 L 710.944 128.784 L 712.576 128.784 L 712.576 126.72 L 716.032 126.72 L 716.032 124.728 L 712.576 124.728 L 712.576 123.024 L 710.944 123.024 L 710.944 124.728 L 701.824 124.728 C 700.552 124.728 699.832 125.592 699.832 127.152 C 699.832 127.632 699.88 128.112 700 128.784 Z" fill="#000000"/>
<path d="M 705.712 141.672 C 707.536 141.672 708.688 141.528 709.624 141.168 C 711.688 140.352 712.936 138.432 712.936 136.08 C 712.936 132.576 710.344 130.32 706.216 130.32 C 702.088 130.32 699.64 132.504 699.64 136.032 C 699.64 138.912 701.272 140.904 703.816 141.408 L 703.816 139.392 C 702.16 138.84 701.488 137.712 701.488 136.104 C 701.488 134.016 702.832 132.456 705.712 132.408 L 705.712 141.672 L 705.712 141.672 Z M 707.488 139.536 C 707.488 139.536 707.392 139.536 707.344 139.512 L 707.344 132.456 C 709.576 132.624 711.088 134.04 711.088 136.056 C 711.088 138.024 709.456 139.536 707.488 139.536 Z" fill="#000000"/>
<path d="M 700 154.584 L 717.496 154.584 L 717.496 152.592 L 710.992 152.592 C 712.264 151.752 712.936 150.408 712.936 148.728 C 712.936 145.464 710.416 143.328 706.408 143.328 C 702.16 143.328 699.64 145.416 699.64 148.8 C 699.64 150.528 700.288 151.728 701.848 152.808 L 700 152.808 L 700 154.584 L 700 154.584 Z M 706.24 152.592 C 703.336 152.592 701.512 151.2 701.512 149.088 C 701.512 146.88 703.36 145.416 706.288 145.416 C 709.216 145.416 711.064 146.88 711.064 149.064 C 711.064 151.224 709.144 152.592 706.24 152.592 Z" fill="#000000"/>
<path d="M 706.168 175.272 C 710.392 175.272 712.936 173.208 712.936 169.872 C 712.936 168.168 712.168 166.8 710.68 165.864 L 712.576 165.864 L 712.576 164.04 L 694.768 164.04 L 694.768 166.032 L 701.512 166.032 C 700.216 167.088 699.64 168.264 699.64 169.896 C 699.64 173.136 702.16 175.272 706.168 175.272 Z M 706.216 173.184 C 703.36 173.184 701.512 171.72 701.512 169.536 C 701.512 167.424 703.24 166.032 706.192 166.032 C 709.144 166.032 711.064 167.424 711.064 169.536 C 711.064 171.744 709.216 173.184 706.216 173.184 Z" fill="#000000"/>
<path d="M 700.048 188.904 L 701.56 188.904 C 701.512 188.688 701.512 188.592 701.512 188.472 C 701.512 187.776 701.872 187.392 702.496 187.392 L 709.504 187.392 C 711.736 187.392 712.936 185.76 712.936 182.664 C 712.936 179.616 711.76 177.744 708.856 177.624 L 708.856 179.64 C 710.392 179.808 711.088 180.72 711.088 182.592 C 711.088 184.392 710.416 185.4 709.216 185.4 L 708.688 185.4 C 707.848 185.4 707.488 184.896 707.296 183.312 C 706.936 180.48 706.84 180.048 706.528 179.28 C 705.928 177.816 704.8 177.072 703.264 177.072 C 700.984 177.072 699.64 178.656 699.64 181.2 C 699.64 182.808 700.312 184.368 701.488 185.472 C 700.528 185.688 699.832 186.552 699.832 187.536 C 699.832 187.944 699.88 188.256 700.048 188.904 Z M 704.344 185.4 C 702.544 185.4 701.392 183.576 701.392 181.632 C 701.392 180.072 701.944 179.16 703.312 179.16 C 704.632 179.16 705.208 180.048 705.52 182.184 C 705.808 184.296 705.904 184.728 706.216 185.4 L 704.344 185.4 Z" fill="#000000"/>
<path d="M 702.064 201.144 L 712.576 201.144 L 712.576 199.296 L 710.752 199.296 C 712.24 198.288 712.936 197.064 712.936 195.456 C 712.936 192.264 710.248 190.104 706.168 190.104 C 702.208 190.104 699.64 192.336 699.64 195.288 C 699.64 196.872 700.312 197.976 701.896 199.296 L 701.056 199.296 C 697.72 199.296 696.448 197.928 696.448 195.6 C 696.448 194.016 697.024 192.792 698.56 192.552 L 698.56 190.512 C 696.184 190.728 694.768 192.576 694.768 195.528 C 694.768 199.464 696.52 201.144 702.064 201.144 Z M 706.216 199.104 C 703.216 199.104 701.488 197.808 701.488 195.696 C 701.488 193.512 703.24 192.192 706.288 192.192 C 709.312 192.192 711.088 193.536 711.088 195.672 C 711.088 197.832 709.264 199.104 706.216 199.104 Z" fill="#000000"/>
<path d="M 705.712 215.064 C 707.536 215.064 708.688 214.92 709.624 214.56 C 711.688 213.744 712.936 211.824 712.936 209.472 C 712.936 205.968 710.344 203.712 706.216 203.712 C 702.088 203.712 699.64 205.896 699.64 209.424 C 699.64 212.304 701.272 214.296 703.816 214.8 L 703.816 212.784 C 702.16 212.232 701.488 211.104 701.488 209.496 C 701.488 207.408 702.832 205.848 705.712 205.8 L 705.712 215.064 L 705.712 215.064 Z M 707.488 212.928 C 707.488 212.928 707.392 212.928 707.344 212.904 L 707.344 205.848 C 709.576 206.016 711.088 207.432 711.088 209.448 C 711.088 211.416 709.456 212.928 707.488 212.928 Z" fill="#000000"/>
</svg>
